<?xml version="1.0" encoding="UTF-8" standalone="no"?>
<svg
   xmlns:dc="http://purl.org/dc/elements/1.1/"
   xmlns:cc="http://creativecommons.org/ns#"
   xmlns:rdf="http://www.w3.org/1999/02/22-rdf-syntax-ns#"
   xmlns:svg="http://www.w3.org/2000/svg"
   xmlns="http://www.w3.org/2000/svg"
   xmlns:xlink="http://www.w3.org/1999/xlink"
   xmlns:sodipodi="http://sodipodi.sourceforge.net/DTD/sodipodi-0.dtd"
   xmlns:inkscape="http://www.inkscape.org/namespaces/inkscape"
   data-v-fde0c5aa=""
   viewBox="-0.3 71.6 286 150"
   class="iconLeft"
   version="1.1"
   id="svg23"
   sodipodi:docname="logo.svg"
   width="286"
   height="150"
   inkscape:version="1.0.2-2 (e86c870879, 2021-01-15)">
  <metadata
     id="metadata27">
    <rdf:RDF>
      <cc:Work
         rdf:about="">
        <dc:format>image/svg+xml</dc:format>
        <dc:type
           rdf:resource="http://purl.org/dc/dcmitype/StillImage" />
        <dc:title></dc:title>
      </cc:Work>
    </rdf:RDF>
  </metadata>
  <sodipodi:namedview
     pagecolor="#ffffff"
     bordercolor="#666666"
     borderopacity="1"
     objecttolerance="10"
     gridtolerance="10"
     guidetolerance="10"
     inkscape:pageopacity="0"
     inkscape:pageshadow="2"
     inkscape:window-width="1366"
     inkscape:window-height="705"
     id="namedview25"
     showgrid="false"
     viewbox-height="10"
     viewbox-y="71.6"
     viewbox-x="-0.3"
     inkscape:zoom="1.2680782"
     inkscape:cx="108.75362"
     inkscape:cy="144.15211"
     inkscape:window-x="1358"
     inkscape:window-y="-8"
     inkscape:window-maximized="1"
     inkscape:current-layer="svg23" />
  <!---->
  <defs
     data-v-fde0c5aa=""
     id="defs2">
    <linearGradient
       data-v-fde0c5aa=""
       gradientTransform="rotate(25)"
       id="linearGradient878"
       x1="0"
       y1="0"
       x2="1"
       y2="0">
      <stop
         data-v-fde0c5aa=""
         offset="0%"
         stop-color="#288B58"
         stop-opacity="1"
         id="stop874"
         style="stop-color:#172ce3;stop-opacity:1" />
      <stop
         data-v-fde0c5aa=""
         offset="100%"
         stop-color="#1522F1"
         stop-opacity="1"
         id="stop876"
         style="stop-color:#ab8cf1;stop-opacity:1" />
    </linearGradient>
    <!---->
    <linearGradient
       inkscape:collect="always"
       xlink:href="#linearGradient878"
       id="linearGradient872"
       x1="-0.086377352"
       y1="9.6005096"
       x2="15.13"
       y2="9.2550001"
       gradientUnits="userSpaceOnUse" />
  </defs>
  <defs
     data-v-fde0c5aa=""
     id="defs6">
    <!---->
  </defs>
  <g
     data-v-fde0c5aa=""
     id="21c6865f-b721-4faa-a3cc-7ed3efcc2292"
     fill="#000000"
     transform="matrix(6.4556369,0,0,6.4556369,162.32621,90.253083)"
     style="fill:url(#linearGradient872);fill-opacity:1">
    <path
       d="M 0,14.55 0.07,14.9 C 0.62,14.87 1.29,14.71 1.83,14.46 3.09,13.89 3.26,12.73 3.26,11.3 V 4.91 C 3.26,4.13 3.3,4.1 4.52,4.02 V 3.61 H 0.62 V 4.02 C 1.85,4.1 1.88,4.13 1.88,4.91 v 6.47 c 0,1.36 -0.24,2.03 -0.58,2.44 -0.31,0.36 -0.81,0.6 -1.3,0.73 z M 5.39,13.3 h 4.37 c 4.3,0 5.37,-2.51 5.37,-5.01 0,-2.3 -1.02,-4.68 -5.09,-4.68 H 5.39 V 4.02 C 6.62,4.1 6.65,4.13 6.65,4.91 V 12 c 0,0.78 -0.03,0.81 -1.26,0.89 z M 8.04,11.55 V 4.9 c 0,-0.73 0.12,-0.8 1.62,-0.8 2.97,0 3.91,1.88 3.91,4.24 0,3.53 -1.73,4.47 -4.08,4.47 -1.22,0 -1.45,-0.15 -1.45,-1.26 z"
       id="path8"
       style="fill:url(#linearGradient872);fill-opacity:1" />
  </g>
  <defs
     data-v-fde0c5aa=""
     id="defs16">
    <linearGradient
       data-v-fde0c5aa=""
       gradientTransform="rotate(25)"
       id="6957d75b-ee49-4d39-8733-4a1c5f32f338"
       x1="0"
       y1="0"
       x2="1"
       y2="0">
      <stop
         data-v-fde0c5aa=""
         offset="0%"
         stop-color="#288B58"
         stop-opacity="1"
         id="stop11" />
      <stop
         data-v-fde0c5aa=""
         offset="100%"
         stop-color="#1522F1"
         stop-opacity="1"
         id="stop13" />
    </linearGradient>
  </defs>
  <g
     data-v-fde0c5aa=""
     id="cd9ad056-cd15-453a-ad70-7d6e8040436e"
     stroke="none"
     fill="url(#6957d75b-ee49-4d39-8733-4a1c5f32f338)"
     transform="matrix(0.85411094,0,0,0.85411094,40,95.3369)">
    <path
       d="M 5.864,36.886 5.082,41.678 A 1.999,1.999 0 0 0 8.024,43.75 L 12,41.552 15.976,43.75 a 1.998,1.998 0 0 0 2.12,-0.115 1.999,1.999 0 0 0 0.821,-1.957 l -0.781,-4.792 3.296,-3.377 a 2,2 0 0 0 -1.13,-3.374 L 15.83,29.451 13.81,25.15 a 2,2 0 0 0 -3.62,0 l -2.02,4.3 -4.473,0.685 A 2,2 0 0 0 2.568,33.509 Z M 9.83,33.243 a 2.002,2.002 0 0 0 1.507,-1.127 l 0.663,-1.41 0.663,1.41 c 0.283,0.604 0.849,1.026 1.507,1.127 l 1.68,0.257 -1.283,1.315 a 2,2 0 0 0 -0.542,1.72 l 0.281,1.722 -1.338,-0.74 a 1.999,1.999 0 0 0 -1.936,0 l -1.338,0.74 0.28,-1.723 A 2,2 0 0 0 9.433,34.814 L 8.149,33.5 9.829,33.243 Z m 12.034,-17.91 -0.546,3.345 a 2,2 0 0 0 2.941,2.072 L 27,19.236 29.74,20.75 a 1.997,1.997 0 0 0 2.12,-0.115 2,2 0 0 0 0.822,-1.957 l -0.546,-3.345 2.295,-2.352 A 2,2 0 0 0 33.303,9.607 L 30.212,9.134 28.81,6.15 a 2,2 0 0 0 -3.62,0 l -1.402,2.984 -3.09,0.473 a 2,2 0 0 0 -1.13,3.374 z m 3.584,-2.406 A 2,2 0 0 0 26.955,11.8 L 27,11.705 27.045,11.8 a 2,2 0 0 0 1.507,1.127 l 0.299,0.045 -0.283,0.29 a 1.999,1.999 0 0 0 -0.543,1.72 L 28.07,15.257 27.967,15.2 a 1.997,1.997 0 0 0 -1.934,0 l -0.103,0.057 0.045,-0.276 a 1.999,1.999 0 0 0 -0.543,-1.719 l -0.283,-0.29 z M 56.852,74.63 a 23.21,23.21 0 0 1 -3.395,3.005 c 4.545,1.526 8.87,4.078 12.545,7.499 C 72.449,91.133 76,98.842 76,106.843 v 14.568 C 76,122.839 74.923,124 73.6,124 H 64 v -12 a 2,2 0 0 0 -4,0 v 12 H 20 v -12 a 2,2 0 0 0 -4,0 v 12 H 6.4 C 5.076,124 4,122.839 4,121.411 v -14.568 c 0,-8 3.55,-15.71 9.998,-21.71 3.675,-3.42 8,-5.972 12.544,-7.498 A 23.235,23.235 0 0 1 23.147,74.63 C 10.265,79.855 0,92.307 0,106.843 v 14.568 C 0,125.05 2.867,128 6.4,128 h 67.2 c 3.534,0 6.4,-2.95 6.4,-6.589 V 106.843 C 80,92.307 69.734,79.855 56.852,74.63 Z M 98.466,0 C 88.742,0 80.117,4.7 74.736,11.953 A 24.733,24.733 0 0 0 60.994,7.807 c -13.724,0 -24.85,11.125 -24.85,24.85 0,1.232 0.092,2.442 0.266,3.625 A 23.03,23.03 0 0 1 40,36 c 0.147,0 0.292,0.008 0.439,0.011 a 20.802,20.802 0 0 1 -0.295,-3.354 c 0,-11.497 9.353,-20.85 20.85,-20.85 4.12,0 8.106,1.202 11.526,3.476 l 3.164,2.104 2.263,-3.05 C 82.822,7.766 90.301,4 98.466,4 112.545,4 124,15.455 124,29.535 c 0,14.08 -11.455,25.534 -25.534,25.534 -2.493,0 -4.967,-0.363 -7.352,-1.08 l -3.68,-1.105 -1.252,3.634 A 10.962,10.962 0 0 1 75.826,63.917 10.924,10.924 0 0 1 65.381,56.28 l -0.908,-2.854 -2.148,0.049 C 62.763,55.245 63,57.095 63,59 c 0,0.52 -0.023,1.035 -0.058,1.546 2.603,4.41 7.395,7.37 12.884,7.37 6.558,0 12.115,-4.224 14.138,-10.095 a 29.513,29.513 0 0 0 8.502,1.248 C 114.776,59.069 128,45.846 128,29.535 128,13.223 114.776,0 98.466,0 Z"
       id="path18" />
    <path
       d="M 21,59 C 21,69.494 29.506,78 40,78 50.492,78 59,69.494 59,59 59,48.506 50.492,40 40,40 29.506,40 21,48.506 21,59 Z M 40,44 c 8.271,0 15,6.729 15,15 0,8.271 -6.729,15 -15,15 -8.272,0 -15,-6.729 -15,-15 0,-8.271 6.728,-15 15,-15 z m 54.486,-8.207 c -0.61,-0.76 -0.84,-1.721 -1.495,-2.459 -0.712,-0.807 -2.224,-0.942 -2.776,0.064 -0.42,0.766 -0.158,1.876 0.204,2.624 0.249,0.5 0.565,1.01 0.91,1.463 1.337,1.772 2.858,2.828 5.419,3.169 v 2.67 c 0,0.922 1.258,1.676 2.256,1.676 0.99,0 2.249,-0.754 2.249,-1.676 v -2.645 c 1.473,-0.186 2.45,-0.631 3.718,-1.38 1.536,-0.91 2.739,-2.386 2.962,-4.068 0.44,-3.256 -1.6,-6.01 -4.982,-6.926 -0.716,-0.193 -0.98,-0.39 -1.698,-0.578 v -6.254 c 0.639,0.173 0.79,0.422 1.292,0.75 0.863,0.565 1.44,1.45 1.828,2.344 0.291,0.68 0.838,1.425 1.667,1.602 0.84,0.19 1.79,-0.297 1.924,-1.128 0.169,-1.065 -0.254,-2.26 -1.295,-3.642 a 7.35,7.35 0 0 0 -2.332,-2.046 C 103.26,18.75 102.5,18.39 101.253,18.203 v -3.522 c 0,-0.929 -1.26,-1.681 -2.25,-1.681 -0.997,0 -2.255,0.752 -2.255,1.681 v 3.466 c -0.313,0.044 -0.178,0.102 -0.48,0.18 -2.547,0.652 -4.934,2.136 -5.52,4.633 -0.413,1.746 -0.203,3.756 1.157,5.116 1.38,1.374 2.929,1.906 4.843,2.367 v 6.962 c -1.127,-0.324 -1.669,-0.874 -2.262,-1.612 z m 6.767,-4.567 c 0.344,0.09 0.237,0.189 0.573,0.301 2.19,0.754 3.193,3.044 1.651,4.799 -0.63,0.719 -1.145,1.145 -2.224,1.322 z M 96.748,21.35 v 0.013 c -0.02,-0.005 -0.025,-0.009 0,-0.013 z m -2.209,3.962 c -1.063,-1.636 0.583,-3.334 2.209,-3.852 v 5.455 c -1.087,-0.282 -1.621,-0.7 -2.209,-1.602 z M 62,40.667 a 2,2 0 0 0 2,2 h 1.744 C 67.568,46.972 71.837,50 76.8,50 c 0.484,0 0.97,-0.03 1.444,-0.088 A 2,2 0 0 0 79.985,47.684 2.006,2.006 0 0 0 77.755,45.942 7.813,7.813 0 0 1 76.8,46 c -2.67,0 -5.03,-1.319 -6.485,-3.333 H 78 a 2,2 0 0 0 0,-4 H 68.834 C 68.815,38.447 68.8,38.225 68.8,38 c 0,-0.225 0.015,-0.446 0.034,-0.667 H 78 a 2,2 0 0 0 0,-4 H 70.315 C 71.77,31.32 74.131,30 76.8,30 c 0.31,0 0.619,0.018 0.919,0.054 A 2.0003518,2.0003518 0 0 0 78.189,26.081 11.886,11.886 0 0 0 76.8,26 c -4.962,0 -9.23,3.028 -11.055,7.333 H 64 a 2,2 0 0 0 0,4 h 0.833 C 64.821,37.556 64.8,37.775 64.8,38 c 0,0.225 0.021,0.444 0.033,0.667 H 64 a 2,2 0 0 0 -2,2 z M 98,63 c -4.973,0 -9,4.03 -9,9 0,4.97 4.027,9 9,9 4.973,0 9,-4.03 9,-9 0,-4.97 -4.027,-9 -9,-9 z m 0,14 c -2.757,0 -5,-2.243 -5,-5 0,-2.757 2.243,-5 5,-5 2.757,0 5,2.243 5,5 0,2.757 -2.243,5 -5,5 z m -14,2 c -3.309,0 -6,2.691 -6,6 0,3.309 2.691,6 6,6 3.309,0 6,-2.691 6,-6 0,-3.309 -2.691,-6 -6,-6 z m 0,8 c -1.103,0 -2,-0.897 -2,-2 0,-1.103 0.897,-2 2,-2 1.102,0 2,0.897 2,2 0,1.103 -0.898,2 -2,2 z"
       id="path20" />
  </g>
  <!---->
</svg>
